<svg width="33" height="34" viewBox="0 0 33 34" fill="none" xmlns="http://www.w3.org/2000/svg">
<g clip-path="url(#clip0_16_95)">
<path d="M32.8656 16.9253C32.8656 7.85574 25.6792 0.502441 16.8156 0.502441C7.95201 0.502441 0.765625 7.85574 0.765625 16.9253C0.765625 25.1229 6.63458 31.9165 14.3078 33.1482V21.6728H10.2324V16.9238H14.3078V13.3081C14.3078 9.19282 16.7046 6.91826 20.3707 6.91826C22.1255 6.91826 23.9632 7.23988 23.9632 7.23988V11.2813H21.9383C19.9441 11.2813 19.3221 12.5471 19.3221 13.846V16.9253H23.7733L23.0618 21.6741H19.3221V33.1495C26.9966 31.9165 32.8656 25.1215 32.8656 16.9253Z" fill="white"/>
</g>
<defs>
<clipPath id="clip0_16_95">
<rect width="32.1" height="32.8455" fill="white" transform="translate(0.765625 0.402344)"/>
</clipPath>
</defs>
</svg>
