<svg width="33" height="34" viewBox="0 0 33 34" fill="none" xmlns="http://www.w3.org/2000/svg">
<g clip-path="url(#clip0_16_97)">
<path d="M16.6154 0.402344C12.2551 0.402344 11.7109 0.422872 9.99882 0.50088C8.28949 0.582994 7.12587 0.858075 6.10268 1.26454C5.04739 1.68332 4.15127 2.2458 3.25915 3.15863C2.36704 4.07147 1.816 4.98704 1.40805 6.0682C1.01082 7.11515 0.740643 8.3058 0.66173 10.0548C0.58148 11.8066 0.56543 12.3636 0.56543 16.8251C0.56543 21.2867 0.585492 21.8436 0.66173 23.5954C0.74198 25.3431 1.01082 26.5351 1.40805 27.582C1.81733 28.6605 2.36704 29.5787 3.25915 30.4916C4.15127 31.4031 5.04606 31.9682 6.10268 32.3857C7.1272 32.7908 8.29083 33.0686 9.99882 33.1493C11.7109 33.2314 12.2551 33.2479 16.6154 33.2479C20.9757 33.2479 21.52 33.2273 23.232 33.1493C24.9401 33.0672 26.105 32.7908 27.1282 32.3857C28.1822 31.9669 29.0796 31.4031 29.9717 30.4916C30.8625 29.5787 31.4148 28.6646 31.8228 27.582C32.2187 26.5351 32.4902 25.3431 32.5691 23.5954C32.6494 21.8436 32.6654 21.2867 32.6654 16.8251C32.6654 12.3636 32.6454 11.8066 32.5691 10.0548C32.4889 8.30716 32.2187 7.11378 31.8228 6.0682C31.4135 4.9884 30.8625 4.07147 29.9717 3.15863C29.0796 2.2458 28.1862 1.68195 27.1282 1.26454C26.105 0.858075 24.9401 0.581626 23.232 0.50088C21.52 0.418767 20.9757 0.402344 16.6154 0.402344ZM16.6154 3.35844C20.8995 3.35844 21.4104 3.38033 23.1023 3.45561C24.6672 3.53088 25.5165 3.79639 26.0809 4.02356C26.8326 4.32054 27.3649 4.67637 27.9294 5.2498C28.4897 5.8246 28.8375 6.37065 29.1277 7.13978C29.3471 7.71732 29.6092 8.58635 29.6801 10.1876C29.7564 11.9201 29.7737 12.4402 29.7737 16.8251C29.7737 21.21 29.7537 21.7314 29.6748 23.4627C29.5932 25.0639 29.3323 25.9329 29.1117 26.5104C28.8121 27.2795 28.4711 27.8243 27.9093 28.4018C27.3489 28.9752 26.8072 29.331 26.0636 29.628C25.5018 29.8525 24.6391 30.1207 23.0743 30.1932C21.3702 30.2712 20.8687 30.289 16.5753 30.289C12.2806 30.289 11.7791 30.2685 10.0764 30.1878C8.51018 30.1042 7.64749 29.8374 7.08574 29.6116C6.3247 29.3051 5.80174 28.9561 5.24133 28.3813C4.67824 27.8078 4.31845 27.2536 4.03758 26.4927C3.81689 25.9179 3.55742 25.0352 3.47583 23.4339C3.41564 21.7095 3.39424 21.1771 3.39424 16.8046C3.39424 12.4307 3.41564 11.8969 3.47583 10.152C3.55742 8.55077 3.81689 7.66942 4.03758 7.09462C4.31845 6.31454 4.67824 5.7808 5.24133 5.20464C5.80174 4.63121 6.3247 4.26169 7.08574 3.97566C7.64749 3.74848 8.49145 3.48161 10.0563 3.3995C11.7616 3.33791 12.2632 3.31738 16.5552 3.31738L16.6154 3.35844ZM16.6154 8.39202C12.0612 8.39202 8.37376 12.1693 8.37376 16.8251C8.37376 21.4851 12.0653 25.2582 16.6154 25.2582C21.1696 25.2582 24.8571 21.481 24.8571 16.8251C24.8571 12.1651 21.1656 8.39202 16.6154 8.39202ZM16.6154 22.2993C13.6595 22.2993 11.2655 19.8497 11.2655 16.8251C11.2655 13.8005 13.6595 11.3509 16.6154 11.3509C19.5713 11.3509 21.9654 13.8005 21.9654 16.8251C21.9654 19.8497 19.5713 22.2993 16.6154 22.2993ZM27.1094 8.05946C27.1094 9.14747 26.2454 10.0302 25.1834 10.0302C24.1201 10.0302 23.2574 9.1461 23.2574 8.05946C23.2574 6.97281 24.1215 6.09009 25.1834 6.09009C26.2441 6.08873 27.1094 6.97281 27.1094 8.05946Z" fill="white"/>
</g>
<defs>
<clipPath id="clip0_16_97">
<rect width="32.1" height="32.8455" fill="white" transform="translate(0.56543 0.402344)"/>
</clipPath>
</defs>
</svg>
