<svg width="34" height="34" viewBox="0 0 34 34" fill="none" xmlns="http://www.w3.org/2000/svg">
<g clip-path="url(#clip0_16_99)">
<path d="M32.3944 8.86829C32.2131 8.16933 31.8555 7.53138 31.3573 7.01835C30.8592 6.50531 30.2381 6.13518 29.5562 5.94504C27.0538 5.25391 17.0158 5.25391 17.0158 5.25391C17.0158 5.25391 6.97788 5.25391 4.47408 5.94504C3.79251 6.13552 3.17175 6.50578 2.67391 7.01878C2.17607 7.53178 1.8186 8.16955 1.63725 8.86829C0.96582 11.4467 0.96582 16.8251 0.96582 16.8251C0.96582 16.8251 0.96582 22.2036 1.63725 24.7819C1.81859 25.4809 2.17622 26.1189 2.67433 26.6319C3.17243 27.1449 3.79353 27.515 4.47542 27.7052C6.97788 28.3963 17.0158 28.3963 17.0158 28.3963C17.0158 28.3963 27.0538 28.3963 29.5576 27.7052C30.2395 27.5152 30.8607 27.1451 31.3588 26.6321C31.857 26.119 32.2145 25.4809 32.3957 24.7819C33.0658 22.2036 33.0658 16.8251 33.0658 16.8251C33.0658 16.8251 33.0658 11.4467 32.3944 8.86829ZM13.7323 21.7081V11.9421L22.1224 16.8251L13.7323 21.7081Z" fill="white"/>
</g>
<defs>
<clipPath id="clip0_16_99">
<rect width="32.1" height="32.8455" fill="white" transform="translate(0.96582 0.402344)"/>
</clipPath>
</defs>
</svg>
